{
	"asset":{
		"generator":"Khronos glTF Blender I/O v4.1.63",
		"version":"2.0"
	},
	"extensionsUsed":[
		"KHR_materials_specular"
	],
	"scene":0,
	"scenes":[
		{
			"name":"Scene",
			"nodes":[
				0,
				1,
				2,
				3,
				4,
				5,
				6,
				7,
				8
			]
		}
	],
	"nodes":[
		{
			"mesh":0,
			"name":"Text",
			"rotation":[
				0.6929113864898682,
				-0.14097441732883453,
				0.14097443222999573,
				0.6929113864898682
			],
			"scale":[
				5,
				5,
				5
			],
			"translation":[
				30,
				16.59000015258789,
				0
			]
		},
		{
			"mesh":1,
			"name":"Energia",
			"rotation":[
				0.6929113864898682,
				-0.14097441732883453,
				0.14097443222999573,
				0.6929113864898682
			],
			"scale":[
				2.5,
				2.5,
				2.5
			],
			"translation":[
				30,
				37.939998626708984,
				0
			]
		},
		{
			"mesh":2,
			"name":"Energia.001",
			"rotation":[
				0.6929113864898682,
				-0.14097441732883453,
				0.14097443222999573,
				0.6929113864898682
			],
			"scale":[
				2.5,
				2.5,
				2.5
			],
			"translation":[
				30,
				22.559999465942383,
				0
			]
		},
		{
			"mesh":3,
			"name":"Text.001",
			"rotation":[
				0.6929113864898682,
				0.14097441732883453,
				-0.14097443222999573,
				0.6929113864898682
			],
			"scale":[
				5,
				5,
				5
			],
			"translation":[
				-49.459999084472656,
				46.820003509521484,
				0
			]
		},
		{
			"mesh":4,
			"name":"pm0197_00_00_body_mesh_shape_body_a",
			"rotation":[
				0.7071068286895752,
				0,
				0,
				0.7071068286895752
			],
			"scale":[
				40,
				40,
				40
			]
		},
		{
			"mesh":5,
			"name":"pm0197_00_00_body_mesh_shape_body_b",
			"rotation":[
				0.7071068286895752,
				0,
				0,
				0.7071068286895752
			],
			"scale":[
				40,
				40,
				40
			]
		},
		{
			"mesh":6,
			"name":"pm0197_00_00_eye_mesh_shape_l_eye",
			"rotation":[
				0.7071068286895752,
				0,
				0,
				0.7071068286895752
			],
			"scale":[
				40,
				40,
				40
			]
		},
		{
			"mesh":7,
			"name":"pm0197_00_00_eye_mesh_shape_r_eye",
			"rotation":[
				0.7071068286895752,
				0,
				0,
				0.7071068286895752
			],
			"scale":[
				40,
				40,
				40
			]
		},
		{
			"mesh":8,
			"name":"pm0197_00_00_tooth_mesh_shape_body_a",
			"rotation":[
				0.7071068286895752,
				0,
				0,
				0.7071068286895752
			],
			"scale":[
				40,
				40,
				40
			]
		}
	],
	"materials":[
		{
			"doubleSided":true,
			"extensions":{
				"KHR_materials_specular":{
					"specularFactor":0
				}
			},
			"name":"body_a.003",
			"pbrMetallicRoughness":{
				"baseColorTexture":{
					"index":0
				},
				"roughnessFactor":0.5
			}
		},
		{
			"doubleSided":true,
			"extensions":{
				"KHR_materials_specular":{
					"specularFactor":0
				}
			},
			"name":"body_b.003",
			"pbrMetallicRoughness":{
				"baseColorTexture":{
					"index":1
				},
				"roughnessFactor":0.5
			}
		},
		{
			"doubleSided":true,
			"extensions":{
				"KHR_materials_specular":{
					"specularFactor":0
				}
			},
			"name":"l_eye.003",
			"pbrMetallicRoughness":{
				"baseColorTexture":{
					"index":2
				},
				"roughnessFactor":0.5
			}
		},
		{
			"doubleSided":true,
			"extensions":{
				"KHR_materials_specular":{
					"specularFactor":0
				}
			},
			"name":"r_eye.003",
			"pbrMetallicRoughness":{
				"baseColorTexture":{
					"index":3
				},
				"roughnessFactor":0.5
			}
		}
	],
	"meshes":[
		{
			"name":"Text",
			"primitives":[
				{
					"attributes":{
						"POSITION":0,
						"NORMAL":1,
						"TEXCOORD_0":2
					},
					"indices":3
				}
			]
		},
		{
			"name":"Text.003",
			"primitives":[
				{
					"attributes":{
						"POSITION":4,
						"NORMAL":5,
						"TEXCOORD_0":6
					},
					"indices":7
				}
			]
		},
		{
			"name":"Text.004",
			"primitives":[
				{
					"attributes":{
						"POSITION":8,
						"NORMAL":9,
						"TEXCOORD_0":10
					},
					"indices":11
				}
			]
		},
		{
			"name":"Text.005",
			"primitives":[
				{
					"attributes":{
						"POSITION":12,
						"NORMAL":13,
						"TEXCOORD_0":14
					},
					"indices":15
				}
			]
		},
		{
			"name":"pm0197_00_00_body_mesh_shape_body_a.001",
			"primitives":[
				{
					"attributes":{
						"POSITION":16,
						"NORMAL":17,
						"TEXCOORD_0":18
					},
					"indices":19,
					"material":0
				}
			]
		},
		{
			"name":"pm0197_00_00_body_mesh_shape_body_b.001",
			"primitives":[
				{
					"attributes":{
						"POSITION":20,
						"NORMAL":21,
						"TEXCOORD_0":22
					},
					"indices":23,
					"material":1
				}
			]
		},
		{
			"name":"pm0197_00_00_eye_mesh_shape_l_eye.001",
			"primitives":[
				{
					"attributes":{
						"POSITION":24,
						"NORMAL":25,
						"TEXCOORD_0":26
					},
					"indices":27,
					"material":2
				}
			]
		},
		{
			"name":"pm0197_00_00_eye_mesh_shape_r_eye.001",
			"primitives":[
				{
					"attributes":{
						"POSITION":28,
						"NORMAL":29,
						"TEXCOORD_0":30
					},
					"indices":31,
					"material":3
				}
			]
		},
		{
			"name":"pm0197_00_00_tooth_mesh_shape_body_a.001",
			"primitives":[
				{
					"attributes":{
						"POSITION":32,
						"NORMAL":33,
						"TEXCOORD_0":34
					},
					"indices":35,
					"material":0
				}
			]
		}
	],
	"textures":[
		{
			"sampler":0,
			"source":0
		},
		{
			"sampler":0,
			"source":1
		},
		{
			"sampler":0,
			"source":2
		},
		{
			"sampler":0,
			"source":2
		}
	],
	"images":[
		{
			"mimeType":"image/png",
			"name":"pm0197_00_00_body_a_alb",
			"uri":"pm0197_00_00_body_a_alb.png"
		},
		{
			"mimeType":"image/png",
			"name":"pm0197_00_00_body_b_alb",
			"uri":"pm0197_00_00_body_b_alb.png"
		},
		{
			"mimeType":"image/png",
			"name":"pm0197_00_00_eye_alb",
			"uri":"pm0197_00_00_eye_alb.png"
		}
	],
	"accessors":[
		{
			"bufferView":0,
			"componentType":5126,
			"count":1105,
			"max":[
				2.5405001640319824,
				0,
				1.0089999437332153
			],
			"min":[
				-2.4635000228881836,
				0,
				-0.6910000443458557
			],
			"type":"VEC3"
		},
		{
			"bufferView":1,
			"componentType":5126,
			"count":1105,
			"type":"VEC3"
		},
		{
			"bufferView":2,
			"componentType":5126,
			"count":1105,
			"type":"VEC2"
		},
		{
			"bufferView":3,
			"componentType":5123,
			"count":3255,
			"type":"SCALAR"
		},
		{
			"bufferView":4,
			"componentType":5126,
			"count":774,
			"max":[
				5.173875331878662,
				0,
				0.5407500267028809
			],
			"min":[
				-4.890376091003418,
				0,
				-0.6849629878997803
			],
			"type":"VEC3"
		},
		{
			"bufferView":5,
			"componentType":5126,
			"count":774,
			"type":"VEC3"
		},
		{
			"bufferView":6,
			"componentType":5126,
			"count":774,
			"type":"VEC2"
		},
		{
			"bufferView":7,
			"componentType":5123,
			"count":2256,
			"type":"SCALAR"
		},
		{
			"bufferView":8,
			"componentType":5126,
			"count":2157,
			"max":[
				6.676999568939209,
				0,
				0.5300000309944153
			],
			"min":[
				-6.539999485015869,
				0,
				-0.38200002908706665
			],
			"type":"VEC3"
		},
		{
			"bufferView":9,
			"componentType":5126,
			"count":2157,
			"type":"VEC3"
		},
		{
			"bufferView":10,
			"componentType":5126,
			"count":2157,
			"type":"VEC2"
		},
		{
			"bufferView":11,
			"componentType":5123,
			"count":6369,
			"type":"SCALAR"
		},
		{
			"bufferView":12,
			"componentType":5126,
			"count":11085,
			"max":[
				8.333499908447266,
				0,
				6.230000019073486
			],
			"min":[
				-8.267499923706055,
				0,
				-0.6820000410079956
			],
			"type":"VEC3"
		},
		{
			"bufferView":13,
			"componentType":5126,
			"count":11085,
			"type":"VEC3"
		},
		{
			"bufferView":14,
			"componentType":5126,
			"count":11085,
			"type":"VEC2"
		},
		{
			"bufferView":15,
			"componentType":5123,
			"count":32721,
			"type":"SCALAR"
		},
		{
			"bufferView":16,
			"componentType":5126,
			"count":1409,
			"max":[
				0.10642330348491669,
				0.43018680810928345,
				-1.2541689948216344e-16
			],
			"min":[
				-0.10642330348491669,
				-0.22164011001586914,
				-0.6819834113121033
			],
			"type":"VEC3"
		},
		{
			"bufferView":17,
			"componentType":5126,
			"count":1409,
			"type":"VEC3"
		},
		{
			"bufferView":18,
			"componentType":5126,
			"count":1409,
			"type":"VEC2"
		},
		{
			"bufferView":19,
			"componentType":5123,
			"count":6642,
			"type":"SCALAR"
		},
		{
			"bufferView":20,
			"componentType":5126,
			"count":1155,
			"max":[
				0.23286910355091095,
				0.3996886909008026,
				-0.0025658579543232918
			],
			"min":[
				-0.23286910355091095,
				-0.6714826226234436,
				-0.8409647941589355
			],
			"type":"VEC3"
		},
		{
			"bufferView":21,
			"componentType":5126,
			"count":1155,
			"type":"VEC3"
		},
		{
			"bufferView":22,
			"componentType":5126,
			"count":1155,
			"type":"VEC2"
		},
		{
			"bufferView":23,
			"componentType":5123,
			"count":5706,
			"type":"SCALAR"
		},
		{
			"bufferView":24,
			"componentType":5126,
			"count":41,
			"max":[
				0.08297678828239441,
				0.3987298905849457,
				-0.5388119220733643
			],
			"min":[
				0.02679526060819626,
				0.3394826054573059,
				-0.604828417301178
			],
			"type":"VEC3"
		},
		{
			"bufferView":25,
			"componentType":5126,
			"count":41,
			"type":"VEC3"
		},
		{
			"bufferView":26,
			"componentType":5126,
			"count":41,
			"type":"VEC2"
		},
		{
			"bufferView":27,
			"componentType":5123,
			"count":201,
			"type":"SCALAR"
		},
		{
			"bufferView":28,
			"componentType":5126,
			"count":41,
			"max":[
				-0.02679526060819626,
				0.3987298905849457,
				-0.5388119220733643
			],
			"min":[
				-0.08297678828239441,
				0.3394826054573059,
				-0.604828417301178
			],
			"type":"VEC3"
		},
		{
			"bufferView":29,
			"componentType":5126,
			"count":41,
			"type":"VEC3"
		},
		{
			"bufferView":30,
			"componentType":5126,
			"count":41,
			"type":"VEC2"
		},
		{
			"bufferView":31,
			"componentType":5123,
			"count":201,
			"type":"SCALAR"
		},
		{
			"bufferView":32,
			"componentType":5126,
			"count":180,
			"max":[
				0.016133839264512062,
				0.4108577072620392,
				-0.49520429968833923
			],
			"min":[
				-0.016133839264512062,
				0.3983759880065918,
				-0.5114008188247681
			],
			"type":"VEC3"
		},
		{
			"bufferView":33,
			"componentType":5126,
			"count":180,
			"type":"VEC3"
		},
		{
			"bufferView":34,
			"componentType":5126,
			"count":180,
			"type":"VEC2"
		},
		{
			"bufferView":35,
			"componentType":5123,
			"count":732,
			"type":"SCALAR"
		}
	],
	"bufferViews":[
		{
			"buffer":0,
			"byteLength":13260,
			"byteOffset":0,
			"target":34962
		},
		{
			"buffer":0,
			"byteLength":13260,
			"byteOffset":13260,
			"target":34962
		},
		{
			"buffer":0,
			"byteLength":8840,
			"byteOffset":26520,
			"target":34962
		},
		{
			"buffer":0,
			"byteLength":6510,
			"byteOffset":35360,
			"target":34963
		},
		{
			"buffer":0,
			"byteLength":9288,
			"byteOffset":41872,
			"target":34962
		},
		{
			"buffer":0,
			"byteLength":9288,
			"byteOffset":51160,
			"target":34962
		},
		{
			"buffer":0,
			"byteLength":6192,
			"byteOffset":60448,
			"target":34962
		},
		{
			"buffer":0,
			"byteLength":4512,
			"byteOffset":66640,
			"target":34963
		},
		{
			"buffer":0,
			"byteLength":25884,
			"byteOffset":71152,
			"target":34962
		},
		{
			"buffer":0,
			"byteLength":25884,
			"byteOffset":97036,
			"target":34962
		},
		{
			"buffer":0,
			"byteLength":17256,
			"byteOffset":122920,
			"target":34962
		},
		{
			"buffer":0,
			"byteLength":12738,
			"byteOffset":140176,
			"target":34963
		},
		{
			"buffer":0,
			"byteLength":133020,
			"byteOffset":152916,
			"target":34962
		},
		{
			"buffer":0,
			"byteLength":133020,
			"byteOffset":285936,
			"target":34962
		},
		{
			"buffer":0,
			"byteLength":88680,
			"byteOffset":418956,
			"target":34962
		},
		{
			"buffer":0,
			"byteLength":65442,
			"byteOffset":507636,
			"target":34963
		},
		{
			"buffer":0,
			"byteLength":16908,
			"byteOffset":573080,
			"target":34962
		},
		{
			"buffer":0,
			"byteLength":16908,
			"byteOffset":589988,
			"target":34962
		},
		{
			"buffer":0,
			"byteLength":11272,
			"byteOffset":606896,
			"target":34962
		},
		{
			"buffer":0,
			"byteLength":13284,
			"byteOffset":618168,
			"target":34963
		},
		{
			"buffer":0,
			"byteLength":13860,
			"byteOffset":631452,
			"target":34962
		},
		{
			"buffer":0,
			"byteLength":13860,
			"byteOffset":645312,
			"target":34962
		},
		{
			"buffer":0,
			"byteLength":9240,
			"byteOffset":659172,
			"target":34962
		},
		{
			"buffer":0,
			"byteLength":11412,
			"byteOffset":668412,
			"target":34963
		},
		{
			"buffer":0,
			"byteLength":492,
			"byteOffset":679824,
			"target":34962
		},
		{
			"buffer":0,
			"byteLength":492,
			"byteOffset":680316,
			"target":34962
		},
		{
			"buffer":0,
			"byteLength":328,
			"byteOffset":680808,
			"target":34962
		},
		{
			"buffer":0,
			"byteLength":402,
			"byteOffset":681136,
			"target":34963
		},
		{
			"buffer":0,
			"byteLength":492,
			"byteOffset":681540,
			"target":34962
		},
		{
			"buffer":0,
			"byteLength":492,
			"byteOffset":682032,
			"target":34962
		},
		{
			"buffer":0,
			"byteLength":328,
			"byteOffset":682524,
			"target":34962
		},
		{
			"buffer":0,
			"byteLength":402,
			"byteOffset":682852,
			"target":34963
		},
		{
			"buffer":0,
			"byteLength":2160,
			"byteOffset":683256,
			"target":34962
		},
		{
			"buffer":0,
			"byteLength":2160,
			"byteOffset":685416,
			"target":34962
		},
		{
			"buffer":0,
			"byteLength":1440,
			"byteOffset":687576,
			"target":34962
		},
		{
			"buffer":0,
			"byteLength":1464,
			"byteOffset":689016,
			"target":34963
		}
	],
	"samplers":[
		{
			"magFilter":9729,
			"minFilter":9987
		}
	],
	"buffers":[
		{
			"byteLength":690480,
			"uri":"model.bin"
		}
	]
}
