{
	"asset":{
		"generator":"Khronos glTF Blender I/O v4.1.63",
		"version":"2.0"
	},
	"extensionsUsed":[
		"KHR_materials_specular"
	],
	"scene":0,
	"scenes":[
		{
			"name":"Scene",
			"nodes":[
				0,
				1,
				2,
				3,
				4,
				5,
				6,
				7
			]
		}
	],
	"nodes":[
		{
			"mesh":0,
			"name":"Text",
			"rotation":[
				0.6929113864898682,
				-0.14097441732883453,
				0.14097443222999573,
				0.6929113864898682
			],
			"scale":[
				5,
				5,
				5
			],
			"translation":[
				30,
				16.59000015258789,
				0
			]
		},
		{
			"mesh":1,
			"name":"Energia",
			"rotation":[
				0.6929113864898682,
				-0.14097441732883453,
				0.14097443222999573,
				0.6929113864898682
			],
			"scale":[
				2.5,
				2.5,
				2.5
			],
			"translation":[
				30,
				37.939998626708984,
				0
			]
		},
		{
			"mesh":2,
			"name":"Energia.001",
			"rotation":[
				0.6929113864898682,
				-0.14097441732883453,
				0.14097443222999573,
				0.6929113864898682
			],
			"scale":[
				2.5,
				2.5,
				2.5
			],
			"translation":[
				30,
				22.559999465942383,
				0
			]
		},
		{
			"mesh":3,
			"name":"Text.001",
			"rotation":[
				0.6929113864898682,
				0.14097441732883453,
				-0.14097443222999573,
				0.6929113864898682
			],
			"scale":[
				5,
				5,
				5
			],
			"translation":[
				-49.459999084472656,
				46.820003509521484,
				0
			]
		},
		{
			"mesh":4,
			"name":"pm0134_00_00_body_mesh_shape_body_a",
			"rotation":[
				0.7071068286895752,
				0,
				0,
				0.7071068286895752
			],
			"scale":[
				40,
				40,
				40
			]
		},
		{
			"mesh":5,
			"name":"pm0134_00_00_body_mesh_shape_body_b",
			"rotation":[
				0.7071068286895752,
				0,
				0,
				0.7071068286895752
			],
			"scale":[
				40,
				40,
				40
			]
		},
		{
			"mesh":6,
			"name":"pm0134_00_00_eye_mesh_shape_l_eye",
			"rotation":[
				0.7071068286895752,
				0,
				0,
				0.7071068286895752
			],
			"scale":[
				40,
				40,
				40
			]
		},
		{
			"mesh":7,
			"name":"pm0134_00_00_eye_mesh_shape_r_eye",
			"rotation":[
				0.7071068286895752,
				0,
				0,
				0.7071068286895752
			],
			"scale":[
				40,
				40,
				40
			]
		}
	],
	"materials":[
		{
			"doubleSided":true,
			"extensions":{
				"KHR_materials_specular":{
					"specularFactor":0
				}
			},
			"name":"body_a.002",
			"pbrMetallicRoughness":{
				"baseColorTexture":{
					"index":0
				},
				"roughnessFactor":0.5
			}
		},
		{
			"doubleSided":true,
			"extensions":{
				"KHR_materials_specular":{
					"specularFactor":0
				}
			},
			"name":"body_b.002",
			"pbrMetallicRoughness":{
				"baseColorTexture":{
					"index":1
				},
				"roughnessFactor":0.5
			}
		},
		{
			"doubleSided":true,
			"extensions":{
				"KHR_materials_specular":{
					"specularFactor":0
				}
			},
			"name":"l_eye.002",
			"pbrMetallicRoughness":{
				"baseColorTexture":{
					"index":2
				},
				"roughnessFactor":0.5
			}
		},
		{
			"doubleSided":true,
			"extensions":{
				"KHR_materials_specular":{
					"specularFactor":0
				}
			},
			"name":"r_eye.002",
			"pbrMetallicRoughness":{
				"baseColorTexture":{
					"index":3
				},
				"roughnessFactor":0.5
			}
		}
	],
	"meshes":[
		{
			"name":"Text",
			"primitives":[
				{
					"attributes":{
						"POSITION":0,
						"NORMAL":1,
						"TEXCOORD_0":2
					},
					"indices":3
				}
			]
		},
		{
			"name":"Text.003",
			"primitives":[
				{
					"attributes":{
						"POSITION":4,
						"NORMAL":5,
						"TEXCOORD_0":6
					},
					"indices":7
				}
			]
		},
		{
			"name":"Text.004",
			"primitives":[
				{
					"attributes":{
						"POSITION":8,
						"NORMAL":9,
						"TEXCOORD_0":10
					},
					"indices":11
				}
			]
		},
		{
			"name":"Text.005",
			"primitives":[
				{
					"attributes":{
						"POSITION":12,
						"NORMAL":13,
						"TEXCOORD_0":14
					},
					"indices":15
				}
			]
		},
		{
			"name":"pm0134_00_00_body_mesh_shape_body_a",
			"primitives":[
				{
					"attributes":{
						"POSITION":16,
						"NORMAL":17,
						"TEXCOORD_0":18
					},
					"indices":19,
					"material":0
				}
			]
		},
		{
			"name":"pm0134_00_00_body_mesh_shape_body_b",
			"primitives":[
				{
					"attributes":{
						"POSITION":20,
						"NORMAL":21,
						"TEXCOORD_0":22
					},
					"indices":23,
					"material":1
				}
			]
		},
		{
			"name":"pm0134_00_00_eye_mesh_shape_l_eye",
			"primitives":[
				{
					"attributes":{
						"POSITION":24,
						"NORMAL":25,
						"TEXCOORD_0":26
					},
					"indices":27,
					"material":2
				}
			]
		},
		{
			"name":"pm0134_00_00_eye_mesh_shape_r_eye",
			"primitives":[
				{
					"attributes":{
						"POSITION":28,
						"NORMAL":29,
						"TEXCOORD_0":30
					},
					"indices":31,
					"material":3
				}
			]
		}
	],
	"textures":[
		{
			"sampler":0,
			"source":0
		},
		{
			"sampler":0,
			"source":1
		},
		{
			"sampler":0,
			"source":2
		},
		{
			"sampler":0,
			"source":2
		}
	],
	"images":[
		{
			"mimeType":"image/png",
			"name":"pm0134_00_00_body_a_alb",
			"uri":"pm0134_00_00_body_a_alb.png"
		},
		{
			"mimeType":"image/png",
			"name":"pm0134_00_00_body_b_alb",
			"uri":"pm0134_00_00_body_b_alb.png"
		},
		{
			"mimeType":"image/png",
			"name":"pm0134_00_00_eye_alb",
			"uri":"pm0134_00_00_eye_alb.png"
		}
	],
	"accessors":[
		{
			"bufferView":0,
			"componentType":5126,
			"count":1382,
			"max":[
				2.493000030517578,
				0,
				1.2300000190734863
			],
			"min":[
				-2.432000160217285,
				0,
				-0.6860000491142273
			],
			"type":"VEC3"
		},
		{
			"bufferView":1,
			"componentType":5126,
			"count":1382,
			"type":"VEC3"
		},
		{
			"bufferView":2,
			"componentType":5126,
			"count":1382,
			"type":"VEC2"
		},
		{
			"bufferView":3,
			"componentType":5123,
			"count":4110,
			"type":"SCALAR"
		},
		{
			"bufferView":4,
			"componentType":5126,
			"count":774,
			"max":[
				5.173875331878662,
				0,
				0.5407500267028809
			],
			"min":[
				-4.890376091003418,
				0,
				-0.6849629878997803
			],
			"type":"VEC3"
		},
		{
			"bufferView":5,
			"componentType":5126,
			"count":774,
			"type":"VEC3"
		},
		{
			"bufferView":6,
			"componentType":5126,
			"count":774,
			"type":"VEC2"
		},
		{
			"bufferView":7,
			"componentType":5123,
			"count":2256,
			"type":"SCALAR"
		},
		{
			"bufferView":8,
			"componentType":5126,
			"count":2207,
			"max":[
				5.7204999923706055,
				0,
				0.5300000309944153
			],
			"min":[
				-5.702499866485596,
				0,
				-0.5740000009536743
			],
			"type":"VEC3"
		},
		{
			"bufferView":9,
			"componentType":5126,
			"count":2207,
			"type":"VEC3"
		},
		{
			"bufferView":10,
			"componentType":5126,
			"count":2207,
			"type":"VEC2"
		},
		{
			"bufferView":11,
			"componentType":5123,
			"count":6537,
			"type":"SCALAR"
		},
		{
			"bufferView":12,
			"componentType":5126,
			"count":7029,
			"max":[
				7.634500503540039,
				0,
				4.230000019073486
			],
			"min":[
				-7.559500217437744,
				0,
				-0.6914074420928955
			],
			"type":"VEC3"
		},
		{
			"bufferView":13,
			"componentType":5126,
			"count":7029,
			"type":"VEC3"
		},
		{
			"bufferView":14,
			"componentType":5126,
			"count":7029,
			"type":"VEC2"
		},
		{
			"bufferView":15,
			"componentType":5123,
			"count":20637,
			"type":"SCALAR"
		},
		{
			"bufferView":16,
			"componentType":5126,
			"count":2132,
			"max":[
				0.3454023003578186,
				0.5704742074012756,
				-5.5875078869283e-11
			],
			"min":[
				-0.3454023003578186,
				-1.247846007347107,
				-0.8803104162216187
			],
			"type":"VEC3"
		},
		{
			"bufferView":17,
			"componentType":5126,
			"count":2132,
			"type":"VEC3"
		},
		{
			"bufferView":18,
			"componentType":5126,
			"count":2132,
			"type":"VEC2"
		},
		{
			"bufferView":19,
			"componentType":5123,
			"count":9954,
			"type":"SCALAR"
		},
		{
			"bufferView":20,
			"componentType":5126,
			"count":1640,
			"max":[
				0.3420409858226776,
				0.5598555207252502,
				-8.508243196657698e-16
			],
			"min":[
				-0.3420409858226776,
				-0.1894392967224121,
				-0.8790622353553772
			],
			"type":"VEC3"
		},
		{
			"bufferView":21,
			"componentType":5126,
			"count":1640,
			"type":"VEC3"
		},
		{
			"bufferView":22,
			"componentType":5126,
			"count":1640,
			"type":"VEC2"
		},
		{
			"bufferView":23,
			"componentType":5123,
			"count":7668,
			"type":"SCALAR"
		},
		{
			"bufferView":24,
			"componentType":5126,
			"count":38,
			"max":[
				0.10809279978275299,
				0.5430796146392822,
				-0.4273495078086853
			],
			"min":[
				0.031337860971689224,
				0.46658241748809814,
				-0.5091990828514099
			],
			"type":"VEC3"
		},
		{
			"bufferView":25,
			"componentType":5126,
			"count":38,
			"type":"VEC3"
		},
		{
			"bufferView":26,
			"componentType":5126,
			"count":38,
			"type":"VEC2"
		},
		{
			"bufferView":27,
			"componentType":5123,
			"count":186,
			"type":"SCALAR"
		},
		{
			"bufferView":28,
			"componentType":5126,
			"count":38,
			"max":[
				-0.031337860971689224,
				0.5430796146392822,
				-0.4273495078086853
			],
			"min":[
				-0.10809279978275299,
				0.46658241748809814,
				-0.5091990828514099
			],
			"type":"VEC3"
		},
		{
			"bufferView":29,
			"componentType":5126,
			"count":38,
			"type":"VEC3"
		},
		{
			"bufferView":30,
			"componentType":5126,
			"count":38,
			"type":"VEC2"
		},
		{
			"bufferView":31,
			"componentType":5123,
			"count":186,
			"type":"SCALAR"
		}
	],
	"bufferViews":[
		{
			"buffer":0,
			"byteLength":16584,
			"byteOffset":0,
			"target":34962
		},
		{
			"buffer":0,
			"byteLength":16584,
			"byteOffset":16584,
			"target":34962
		},
		{
			"buffer":0,
			"byteLength":11056,
			"byteOffset":33168,
			"target":34962
		},
		{
			"buffer":0,
			"byteLength":8220,
			"byteOffset":44224,
			"target":34963
		},
		{
			"buffer":0,
			"byteLength":9288,
			"byteOffset":52444,
			"target":34962
		},
		{
			"buffer":0,
			"byteLength":9288,
			"byteOffset":61732,
			"target":34962
		},
		{
			"buffer":0,
			"byteLength":6192,
			"byteOffset":71020,
			"target":34962
		},
		{
			"buffer":0,
			"byteLength":4512,
			"byteOffset":77212,
			"target":34963
		},
		{
			"buffer":0,
			"byteLength":26484,
			"byteOffset":81724,
			"target":34962
		},
		{
			"buffer":0,
			"byteLength":26484,
			"byteOffset":108208,
			"target":34962
		},
		{
			"buffer":0,
			"byteLength":17656,
			"byteOffset":134692,
			"target":34962
		},
		{
			"buffer":0,
			"byteLength":13074,
			"byteOffset":152348,
			"target":34963
		},
		{
			"buffer":0,
			"byteLength":84348,
			"byteOffset":165424,
			"target":34962
		},
		{
			"buffer":0,
			"byteLength":84348,
			"byteOffset":249772,
			"target":34962
		},
		{
			"buffer":0,
			"byteLength":56232,
			"byteOffset":334120,
			"target":34962
		},
		{
			"buffer":0,
			"byteLength":41274,
			"byteOffset":390352,
			"target":34963
		},
		{
			"buffer":0,
			"byteLength":25584,
			"byteOffset":431628,
			"target":34962
		},
		{
			"buffer":0,
			"byteLength":25584,
			"byteOffset":457212,
			"target":34962
		},
		{
			"buffer":0,
			"byteLength":17056,
			"byteOffset":482796,
			"target":34962
		},
		{
			"buffer":0,
			"byteLength":19908,
			"byteOffset":499852,
			"target":34963
		},
		{
			"buffer":0,
			"byteLength":19680,
			"byteOffset":519760,
			"target":34962
		},
		{
			"buffer":0,
			"byteLength":19680,
			"byteOffset":539440,
			"target":34962
		},
		{
			"buffer":0,
			"byteLength":13120,
			"byteOffset":559120,
			"target":34962
		},
		{
			"buffer":0,
			"byteLength":15336,
			"byteOffset":572240,
			"target":34963
		},
		{
			"buffer":0,
			"byteLength":456,
			"byteOffset":587576,
			"target":34962
		},
		{
			"buffer":0,
			"byteLength":456,
			"byteOffset":588032,
			"target":34962
		},
		{
			"buffer":0,
			"byteLength":304,
			"byteOffset":588488,
			"target":34962
		},
		{
			"buffer":0,
			"byteLength":372,
			"byteOffset":588792,
			"target":34963
		},
		{
			"buffer":0,
			"byteLength":456,
			"byteOffset":589164,
			"target":34962
		},
		{
			"buffer":0,
			"byteLength":456,
			"byteOffset":589620,
			"target":34962
		},
		{
			"buffer":0,
			"byteLength":304,
			"byteOffset":590076,
			"target":34962
		},
		{
			"buffer":0,
			"byteLength":372,
			"byteOffset":590380,
			"target":34963
		}
	],
	"samplers":[
		{
			"magFilter":9729,
			"minFilter":9987
		}
	],
	"buffers":[
		{
			"byteLength":590752,
			"uri":"model.bin"
		}
	]
}
